
 
http://www.imdb.com/title/tt2184339/


A family is held hostage for harboring the target of a murderous syndicate during the Purge, a 12-hour period in which any and all crime is legalized. 



Director:
 James DeMonaco 

Writer:
 James DeMonaco 

Stars:
 Ethan Hawke, Lena Headey, Max Burkholder 

Genres:
  Horror |  Sci-Fi |  Thriller 



General Information
 Sample Included......: Yes
 Source...............: 720 Smy Thx 
 Container............: AVi

 V2 for best source :)


Quote:

Video
 ID                                       : 0
 Format                                   : MPEG-4 Visual
 Format profile                           : Advanced Simple@L5
 Format settings, BVOP                    : 1
 Format settings, QPel                    : No
 Format settings, GMC                     : No warppoints
 Format settings, Matrix                  : Default (MPEG)
 Codec ID                                 : XVID
 Codec ID/Hint                            : XviD
 Duration                                 : 1h 25mn
 Bit rate                                 : 1 537 Kbps
 Width                                    : 704 pixels
 Height                                   : 304 pixels
 Display aspect ratio                     : 2.35:1
 Frame rate                               : 23.976 fps
 Color space                              : YUV
 Chroma subsampling                       : 4:2:0
 Bit depth                                : 8 bits
 Scan type                                : Progressive
 Compression mode                         : Lossy
 Bits/(Pixel*Frame)                       : 0.300
 Stream size                              : 938 MiB (96%)
 Writing library                          : XviD 1.2.1 (UTC 2008-12-04)

 Audio
 ID                                       : 1
 Format                                   : AC-3
 Format/Info                              : Audio Coding 3
 Mode extension                           : CM (complete main)
 Format settings, Endianness              : Big
 Codec ID                                 : 2000
 Duration                                 : 1h 25mn
 Bit rate mode                            : Constant
 Bit rate                                 : 64.0 Kbps
 Channel(s)                               : 2 channels
 Channel positions                        : Front: L R
 Sampling rate                            : 48.0 KHz
 Bit depth                                : 16 bits
 Compression mode                         : Lossy
 Stream size                              : 39.0 MiB (4%)
 Alignment                                : Aligned on interleaves
 Interleave, duration                     : 64 ms (1.53 video frames)
 Interleave, preload duration             : 192 ms
 Title                                    : The Purge.2013.720p.WEB-DL.x264.AAC-SmY - [0] 




//bayimg.com/dANOfAaEf
//bayimg.com/DaNoGAAeF
//bayimg.com/daNohaaeF

